<svg width="20" height="20" viewBox="0 0 20 20" fill="none" xmlns="http://www.w3.org/2000/svg">
<path d="M15 4C14.73 4 14.48 3.89 14.29 3.71C14.11 3.52 14 3.27 14 3V1C14 0.73 14.11 0.48 14.29 0.29C14.48 0.11 14.73 0 15 0C15.27 0 15.52 0.11 15.71 0.29C15.89 0.48 16 0.73 16 1V3C16 3.27 15.89 3.52 15.71 3.71C15.52 3.89 15.27 4 15 4ZM5 4C4.73 4 4.48 3.89 4.29 3.71C4.11 3.52 4 3.27 4 3V1C4 0.73 4.11 0.48 4.29 0.29C4.48 0.11 4.73 0 5 0C5.27 0 5.52 0.11 5.71 0.29C5.89 0.48 6 0.73 6 1V3C6 3.27 5.89 3.52 5.71 3.71C5.52 3.89 5.27 4 5 4Z" fill="#777777"/>
<path d="M17 2H16V3C16 3.27 15.89 3.52 15.71 3.71C15.52 3.89 15.27 4 15 4C14.73 4 14.48 3.89 14.29 3.71C14.11 3.52 14 3.27 14 3V2H6V3C6 3.27 5.89 3.52 5.71 3.71C5.52 3.89 5.27 4 5 4C4.73 4 4.48 3.89 4.29 3.71C4.11 3.52 4 3.27 4 3V2H3C2.2 2 1.44 2.32 0.88 2.88C0.32 3.44 0 4.2 0 5V7H20V5C20 4.2 19.68 3.44 19.12 2.88C18.56 2.32 17.8 2 17 2Z" fill="#5B5B5B"/>
<path d="M5 12C5.55228 12 6 11.5523 6 11C6 10.4477 5.55228 10 5 10C4.44772 10 4 10.4477 4 11C4 11.5523 4.44772 12 5 12Z" fill="#E6E6E5"/>
<path d="M5 16C5.55228 16 6 15.5523 6 15C6 14.4477 5.55228 14 5 14C4.44772 14 4 14.4477 4 15C4 15.5523 4.44772 16 5 16Z" fill="#E6E6E5"/>
<path d="M10 12C10.5523 12 11 11.5523 11 11C11 10.4477 10.5523 10 10 10C9.44772 10 9 10.4477 9 11C9 11.5523 9.44772 12 10 12Z" fill="#E6E6E5"/>
<path d="M10 16C10.5523 16 11 15.5523 11 15C11 14.4477 10.5523 14 10 14C9.44772 14 9 14.4477 9 15C9 15.5523 9.44772 16 10 16Z" fill="#E6E6E5"/>
<path d="M15 12C15.5523 12 16 11.5523 16 11C16 10.4477 15.5523 10 15 10C14.4477 10 14 10.4477 14 11C14 11.5523 14.4477 12 15 12Z" fill="#E6E6E5"/>
<path d="M15 16C15.5523 16 16 15.5523 16 15C16 14.4477 15.5523 14 15 14C14.4477 14 14 14.4477 14 15C14 15.5523 14.4477 16 15 16Z" fill="#E6E6E5"/>
<path d="M15 12C14.73 12 14.48 11.89 14.29 11.71C14.11 11.52 14 11.27 14 11C14 10.73 14.11 10.48 14.29 10.29C14.48 10.11 14.73 10 15 10C15.27 10 15.52 10.11 15.71 10.29C15.89 10.48 16 10.73 16 11C16 11.27 15.89 11.52 15.71 11.71C15.52 11.89 15.27 12 15 12ZM15 16C14.73 16 14.48 15.89 14.29 15.71C14.11 15.52 14 15.27 14 15C14 14.73 14.11 14.48 14.29 14.29C14.48 14.11 14.73 14 15 14C15.27 14 15.52 14.11 15.71 14.29C15.89 14.48 16 14.73 16 15C16 15.27 15.89 15.52 15.71 15.71C15.52 15.89 15.27 16 15 16ZM10 12C9.73 12 9.48 11.89 9.29 11.71C9.11 11.52 9 11.27 9 11C9 10.73 9.11 10.48 9.29 10.29C9.48 10.11 9.73 10 10 10C10.27 10 10.52 10.11 10.71 10.29C10.89 10.48 11 10.73 11 11C11 11.27 10.89 11.52 10.71 11.71C10.52 11.89 10.27 12 10 12ZM10 16C9.73 16 9.48 15.89 9.29 15.71C9.11 15.52 9 15.27 9 15C9 14.73 9.11 14.48 9.29 14.29C9.48 14.11 9.73 14 10 14C10.27 14 10.52 14.11 10.71 14.29C10.89 14.48 11 14.73 11 15C11 15.27 10.89 15.52 10.71 15.71C10.52 15.89 10.27 16 10 16ZM5 12C4.73 12 4.48 11.89 4.29 11.71C4.11 11.52 4 11.27 4 11C4 10.73 4.11 10.48 4.29 10.29C4.48 10.11 4.73 10 5 10C5.27 10 5.52 10.11 5.71 10.29C5.89 10.48 6 10.73 6 11C6 11.27 5.89 11.52 5.71 11.71C5.52 11.89 5.27 12 5 12ZM5 16C4.73 16 4.48 15.89 4.29 15.71C4.11 15.52 4 15.27 4 15C4 14.73 4.11 14.48 4.29 14.29C4.48 14.11 4.73 14 5 14C5.27 14 5.52 14.11 5.71 14.29C5.89 14.48 6 14.73 6 15C6 15.27 5.89 15.52 5.71 15.71C5.52 15.89 5.27 16 5 16ZM0 7V17C0 17.8 0.32 18.56 0.88 19.12C1.44 19.68 2.2 20 3 20H17C17.8 20 18.56 19.68 19.12 19.12C19.68 18.56 20 17.8 20 17V7H0Z" fill="#777777"/>
</svg>
