<svg width="28" height="23" viewBox="0 0 28 23" fill="none" xmlns="http://www.w3.org/2000/svg">
<g clip-path="url(#clip0_1_3460)">
<path d="M3.44385 12.4168L13.9388 4.52426L24.4337 12.5165V23H16.6695V15.4463H11.208V22.9003H3.44385V12.4168Z" fill="white"/>
<path d="M27.4702 9.82583L22.7424 6.21838V1.63432H19.2781V3.54767L14.9986 0.279035C14.7133 0.059798 14.3669 -0.0199247 14.0408 5.94347e-06C14.0408 5.94347e-06 14.0204 5.94347e-06 14 5.94347e-06C14 5.94347e-06 13.9797 5.94347e-06 13.9593 5.94347e-06C13.6332 -0.0199247 13.2868 0.059798 13.0015 0.279035L0.52988 9.82583C-0.0610955 10.2842 -0.162988 11.1213 0.285338 11.6993C0.754043 12.2773 1.60994 12.377 2.20091 11.9385L14 2.92982L25.7788 11.9385C26.3698 12.3969 27.2257 12.2972 27.6944 11.6993C28.1631 11.1213 28.0612 10.2842 27.4498 9.82583" fill="white"/>
</g>
<defs>
<clipPath id="clip0_1_3460">
<rect width="28" height="23" fill="white"/>
</clipPath>
</defs>
</svg>
