<svg width="111" height="147" viewBox="0 0 111 147" fill="none" xmlns="http://www.w3.org/2000/svg">
<path d="M73.8804 17.5011C78.5567 19.2265 82.0024 21.5346 84.9558 23.9099C93.7266 31.8874 96.1878 40.8284 96.0312 52.0102C95.7851 64.178 90.7061 71.8194 84.9558 77.556C81.7563 80.7604 77.975 83.3149 73.8804 85.1973V17.5011ZM84.9558 95.4828C97.5974 87.8415 110.15 73.7913 110.798 52.6825C111.134 29.0191 99.1413 14.3863 84.9558 6.67774C76.4311 2.21845 66.743 0 59.3594 0V103.684C64.8635 103.684 74.5293 101.802 84.9558 95.4828Z" fill="#14AE5C"/>
<path d="M19.645 92.5921C21.2112 94.1607 23.4263 95.4604 25.6414 96.7825C32.2866 100.973 41.0574 103.595 51.4839 104.088V51.6741H36.6273V85.5334C32.1971 83.3149 28.4158 80.7604 25.6414 77.5559C11.1203 62.2733 13.3354 39.2598 25.6414 25.8819C31.6377 19.1369 41.4825 15.4395 51.1483 15.3723V0.0896301C40.4757 0.24649 32.5327 3.20442 25.5519 6.99146C21.4573 9.2099 17.676 11.7421 14.8121 14.6328C4.47508 24.8062 0.0449219 38.5427 0.0449219 53.2427C0.0449219 66.0604 6.69015 82.9788 19.645 92.5921Z" fill="#14AE5C"/>
<path d="M86.9251 130.731C86.1867 131.135 85.3589 131.381 84.3073 131.628C83.1662 131.874 81.8461 131.964 80.3693 131.964C79.2954 131.964 78.3109 131.874 77.4159 131.717C76.6776 131.628 75.9392 131.471 75.2903 131.224C74.7981 131.068 74.3953 130.888 74.0597 130.731C73.8136 130.575 73.657 130.575 73.657 130.485L73.0753 127.437C73.3214 127.773 73.8136 128.02 74.552 128.266C75.2008 128.513 75.9392 128.759 76.7671 128.916C78.5794 129.32 80.1232 129.566 81.6 129.566C82.2488 129.566 82.7411 129.477 83.0767 129.32C83.4794 129.073 83.4794 128.827 83.0767 128.491C82.92 128.401 82.6739 128.334 82.2488 128.244C82.0027 128.154 81.5104 128.154 80.9287 128.087H80.526L79.3849 127.998C78.8031 127.908 78.2438 127.841 77.8186 127.751C76.7447 127.505 75.8497 127.258 75.1113 126.922C74.4625 126.675 74.0374 126.339 73.7241 125.936C73.478 125.6 73.2319 125.286 73.1424 124.86C73.0529 124.614 73.0529 124.211 73.0529 123.785C73.0529 123.449 73.1424 123.135 73.299 122.888C73.5451 122.485 73.8807 122.149 74.373 121.902C74.9547 121.566 75.6931 121.253 76.5881 121.073C77.662 120.827 78.9598 120.67 80.4365 120.67C81.421 120.67 82.3159 120.67 83.2333 120.76C83.9716 120.849 84.6205 120.916 85.2917 121.006C85.5379 121.096 85.784 121.096 86.0301 121.163C86.1867 121.163 86.3657 121.253 86.5223 121.253C86.7685 121.342 86.9251 121.342 86.9251 121.342L87.5068 124.054C87.5068 124.054 87.4173 123.964 87.1712 123.897L86.0301 123.493C85.4484 123.337 84.71 123.157 83.9716 123.09C83.0767 122.933 82.0922 122.933 81.0182 122.844C79.2059 122.754 78.4004 123 78.4004 123.493C78.4004 123.897 78.8926 124.233 79.9666 124.39L81.1077 124.547C81.1972 124.547 81.2643 124.547 81.3538 124.547L82.0027 124.636L83.3899 124.793C85.4484 125.04 86.9251 125.443 87.6634 126.026C88.4913 126.608 88.894 127.348 88.8045 128.491C88.8045 129.32 88.1557 130.059 86.9251 130.731ZM71.2629 126.608C70.7707 127.191 70.0323 127.594 69.1373 127.841C68.2424 128.087 67.2579 128.244 66.0273 128.244C64.8862 128.244 63.7227 128.154 62.425 127.998L62.2684 126.855L63.0067 126.944C63.5885 127.034 64.1478 126.944 64.6401 126.944C65.3784 126.855 65.9602 126.608 66.3629 126.295C66.8551 125.891 67.1013 125.309 67.1013 124.659C67.1013 124.255 66.9446 123.83 66.5195 123.583C66.1839 123.337 65.7812 123.18 65.1323 123.09C64.6401 123 64.0583 122.933 63.4095 122.933H62.5816H61.8432L61.7537 124.816C61.6642 125.712 61.6642 126.631 61.6642 127.37C61.6642 128.356 61.6642 129.185 61.7537 129.925C61.8432 130.754 61.9104 131.314 62.0894 131.65H56.5852C56.7419 131 56.8314 130.171 56.9209 129.185C57.0103 128.289 57.0103 127.303 57.0103 126.227C57.0103 123.919 56.8537 122.127 56.6747 120.894H66.609C68.4885 120.894 69.8981 121.23 70.7931 121.79C71.6209 122.373 72.0237 123.18 72.0237 124.345C72.0684 125.219 71.8223 126.048 71.2629 126.608ZM54.7729 131.628H40.6546C40.9007 130.149 40.9902 128.423 40.9902 126.295C40.9902 125.152 40.9902 124.166 40.9007 123.247C40.8112 122.261 40.7441 121.432 40.5651 120.872H54.1017L55.0861 123.673C54.3478 123.426 53.5199 123.269 52.7144 123.18C51.9761 123.09 51.1482 123.023 50.2532 122.933C49.5149 122.844 48.7765 122.844 47.9487 122.844C47.2998 122.844 46.6286 122.844 45.9797 122.933L45.8902 125.802L46.472 124.726C47.0537 124.569 47.792 124.479 48.5975 124.39C49.2464 124.39 49.9176 124.39 50.656 124.39C51.1482 124.39 51.73 124.479 52.2222 124.547C52.6249 124.636 52.8039 124.636 52.8039 124.636L53.5423 127.101C52.8934 126.765 52.1551 126.519 51.3272 126.451C50.5889 126.362 49.8505 126.295 49.1121 126.295C48.4633 126.295 47.792 126.384 47.2327 126.451C46.7404 126.541 46.3377 126.608 46.0021 126.698V129.656C47.7249 129.745 49.4478 129.745 51.1706 129.499C53.0501 129.252 54.7058 128.916 56.093 128.356L54.7729 131.628ZM38.35 129.32C38.4395 130.306 38.5066 131.045 38.6856 131.628H33.1815C33.271 131.224 33.3381 130.642 33.3381 129.992C33.4276 129.409 33.4276 128.849 33.4276 128.177C33.4276 127.684 33.4276 127.191 33.4276 126.698V126.115C31.9509 125.533 30.3175 125.712 28.5052 126.451C28.5052 127.034 28.5052 127.527 28.5052 128.02C28.5052 128.603 28.5052 129.096 28.5947 129.499C28.6842 130.575 28.7513 131.314 28.9303 131.717H23.4262C23.5828 131.068 23.6723 130.238 23.7618 129.252C23.8513 128.356 23.8513 127.28 23.8513 126.205C23.8513 123.986 23.6947 122.171 23.5157 120.939H29.0198C28.7737 122.082 28.6171 123.74 28.6171 125.869L29.1093 124.3C29.1093 124.3 29.2659 124.3 29.5121 124.211C29.6687 124.211 29.8477 124.121 30.0043 124.121L30.586 124.031C31.0783 123.942 31.5705 124.031 32.0628 124.031C32.6445 124.121 33.1367 124.188 33.5395 124.435C33.5395 123.538 33.45 122.866 33.45 122.306C33.3605 121.656 33.2934 121.163 33.2039 120.916H38.708C38.4619 122.149 38.3053 123.964 38.3053 126.339C38.2829 127.437 38.2829 128.423 38.35 129.32ZM97.7543 108.861C94.3087 108.861 90.1246 108.861 85.6945 108.525C73.5451 108.188 59.9414 109.174 56.0706 119.034C50.3204 108.838 37.276 107.852 25.7979 108.188C21.7034 108.525 17.5193 108.525 14.3198 108.525L1.0293 137.051C8.01015 138.933 16.9376 140.748 25.8874 137.88C36.7167 134.025 48.2843 131.874 56.2496 143.392C56.8314 142.742 57.5697 141.824 58.3752 141.084C67.325 132.121 76.4986 133.779 85.784 137.23C94.3982 140.434 102.364 138.955 109.993 137.073L97.7543 108.861Z" fill="#14AE5C"/>
<path d="M55.9141 147H55.8246C55.489 147 55.2429 146.843 55.0863 146.597C48.0383 136.401 38.4396 137.23 26.2008 141.577C17.0048 144.535 7.74177 142.72 0.760923 140.748C0.179185 140.591 -0.134058 140.009 0.0225634 139.426C0.179185 138.843 0.760923 138.53 1.34266 138.686C8.48013 140.658 17.0048 142.294 25.5519 139.516C36.6273 135.572 47.9488 133.51 56.1602 144.356C56.6525 143.952 57.1447 143.459 57.5475 143.034C67.0566 133.51 76.9014 135.392 86.0973 138.933C94.5549 142.048 102.341 140.569 109.635 138.686C110.217 138.53 110.776 138.843 110.955 139.426C111.112 140.009 110.799 140.569 110.217 140.658C102.587 142.541 94.4654 144.199 85.4485 140.815C75.6037 137.028 67.3251 136.222 59.2032 144.423C58.8004 144.916 58.1292 145.499 57.5698 145.992C57.3237 146.238 57.0776 146.395 56.8315 146.641C56.4958 146.821 56.2497 147 55.9141 147Z" fill="#14AE5C"/>
</svg>
