<svg width="50" height="66" viewBox="0 0 50 66" fill="none" xmlns="http://www.w3.org/2000/svg">
<g clip-path="url(#clip0_1_2299)">
<path d="M33.02 7.81C35.11 8.58 36.65 9.61 37.97 10.67C41.89 14.23 42.99 18.22 42.92 23.21C42.81 28.64 40.54 32.05 37.97 34.61C36.54 36.04 34.85 37.18 33.02 38.02V7.81ZM37.97 42.61C43.62 39.2 49.23 32.93 49.52 23.51C49.67 12.95 44.31 6.42 37.97 2.98C34.16 0.99 29.83 0 26.53 0V46.27C28.99 46.27 33.31 45.43 37.97 42.61Z" fill="#14AE5C"/>
<path d="M8.78002 41.32C9.48002 42.02 10.47 42.6 11.46 43.19C14.43 45.06 18.35 46.23 23.01 46.45V23.06H16.37V38.17C14.39 37.18 12.7 36.04 11.46 34.61C4.97002 27.79 5.96002 17.52 11.46 11.55C14.14 8.54 18.54 6.89 22.86 6.86V0.0400009C18.09 0.110001 14.54 1.43 11.42 3.12C9.59002 4.11 7.90002 5.24 6.62002 6.53C2.00002 11.07 0.0200195 17.2 0.0200195 23.76C0.0200195 29.48 2.99002 37.03 8.78002 41.32Z" fill="#14AE5C"/>
<path d="M38.85 58.34C38.52 58.52 38.15 58.63 37.68 58.74C37.17 58.85 36.58 58.89 35.92 58.89C35.44 58.89 35 58.85 34.6 58.78C34.27 58.74 33.94 58.67 33.65 58.56C33.43 58.49 33.25 58.41 33.1 58.34C32.99 58.27 32.92 58.27 32.92 58.23L32.66 56.87C32.77 57.02 32.99 57.13 33.32 57.24C33.61 57.35 33.94 57.46 34.31 57.53C35.12 57.71 35.81 57.82 36.47 57.82C36.76 57.82 36.98 57.78 37.13 57.71C37.31 57.6 37.31 57.49 37.13 57.34C37.06 57.3 36.95 57.27 36.76 57.23C36.65 57.19 36.43 57.19 36.17 57.16H35.99L35.48 57.12C35.22 57.08 34.97 57.05 34.78 57.01C34.3 56.9 33.9 56.79 33.57 56.64C33.28 56.53 33.09 56.38 32.95 56.2C32.84 56.05 32.73 55.91 32.69 55.72C32.65 55.61 32.65 55.43 32.65 55.24C32.65 55.09 32.69 54.95 32.76 54.84C32.87 54.66 33.02 54.51 33.24 54.4C33.5 54.25 33.83 54.11 34.23 54.03C34.71 53.92 35.29 53.85 35.95 53.85C36.39 53.85 36.79 53.85 37.2 53.89C37.53 53.93 37.82 53.96 38.12 54C38.23 54.04 38.34 54.04 38.45 54.07C38.52 54.07 38.6 54.11 38.67 54.11C38.78 54.15 38.85 54.15 38.85 54.15L39.11 55.36C39.11 55.36 39.07 55.32 38.96 55.29L38.45 55.11C38.19 55.04 37.86 54.96 37.53 54.93C37.13 54.86 36.69 54.86 36.21 54.82C35.4 54.78 35.04 54.89 35.04 55.11C35.04 55.29 35.26 55.44 35.74 55.51L36.25 55.58C36.29 55.58 36.32 55.58 36.36 55.58L36.65 55.62L37.27 55.69C38.19 55.8 38.85 55.98 39.18 56.24C39.55 56.5 39.73 56.83 39.69 57.34C39.69 57.71 39.4 58.04 38.85 58.34ZM31.85 56.5C31.63 56.76 31.3 56.94 30.9 57.05C30.5 57.16 30.06 57.23 29.51 57.23C29 57.23 28.48 57.19 27.9 57.12L27.83 56.61L28.16 56.65C28.42 56.69 28.67 56.65 28.89 56.65C29.22 56.61 29.48 56.5 29.66 56.36C29.88 56.18 29.99 55.92 29.99 55.63C29.99 55.45 29.92 55.26 29.73 55.15C29.58 55.04 29.4 54.97 29.11 54.93C28.89 54.89 28.63 54.86 28.34 54.86H27.97H27.64L27.6 55.7C27.56 56.1 27.56 56.51 27.56 56.84C27.56 57.28 27.56 57.65 27.6 57.98C27.64 58.35 27.67 58.6 27.75 58.75H25.29C25.36 58.46 25.4 58.09 25.44 57.65C25.48 57.25 25.48 56.81 25.48 56.33C25.48 55.3 25.41 54.5 25.33 53.95H29.77C30.61 53.95 31.24 54.1 31.64 54.35C32.01 54.61 32.19 54.97 32.19 55.49C32.21 55.88 32.1 56.25 31.85 56.5ZM24.48 58.74H18.17C18.28 58.08 18.32 57.31 18.32 56.36C18.32 55.85 18.32 55.41 18.28 55C18.24 54.56 18.21 54.19 18.13 53.94H24.18L24.62 55.19C24.29 55.08 23.92 55.01 23.56 54.97C23.23 54.93 22.86 54.9 22.46 54.86C22.13 54.82 21.8 54.82 21.43 54.82C21.14 54.82 20.84 54.82 20.55 54.86L20.51 56.14L20.77 55.66C21.03 55.59 21.36 55.55 21.72 55.51C22.01 55.51 22.31 55.51 22.64 55.51C22.86 55.51 23.12 55.55 23.34 55.58C23.52 55.62 23.6 55.62 23.6 55.62L23.93 56.72C23.64 56.57 23.31 56.46 22.94 56.43C22.61 56.39 22.28 56.36 21.95 56.36C21.66 56.36 21.36 56.4 21.11 56.43C20.89 56.47 20.71 56.5 20.56 56.54V57.86C21.33 57.9 22.1 57.9 22.87 57.79C23.71 57.68 24.45 57.53 25.07 57.28L24.48 58.74ZM17.14 57.71C17.18 58.15 17.21 58.48 17.29 58.74H14.83C14.87 58.56 14.9 58.3 14.9 58.01C14.94 57.75 14.94 57.5 14.94 57.2C14.94 56.98 14.94 56.76 14.94 56.54V56.28C14.28 56.02 13.55 56.1 12.74 56.43C12.74 56.69 12.74 56.91 12.74 57.13C12.74 57.39 12.74 57.61 12.78 57.79C12.82 58.27 12.85 58.6 12.93 58.78H10.47C10.54 58.49 10.58 58.12 10.62 57.68C10.66 57.28 10.66 56.8 10.66 56.32C10.66 55.33 10.59 54.52 10.51 53.97H12.97C12.86 54.48 12.79 55.22 12.79 56.17L13.01 55.47C13.01 55.47 13.08 55.47 13.19 55.43C13.26 55.43 13.34 55.39 13.41 55.39L13.67 55.35C13.89 55.31 14.11 55.35 14.33 55.35C14.59 55.39 14.81 55.42 14.99 55.53C14.99 55.13 14.95 54.83 14.95 54.58C14.91 54.29 14.88 54.07 14.84 53.96H17.3C17.19 54.51 17.12 55.32 17.12 56.38C17.11 56.87 17.11 57.31 17.14 57.71ZM43.69 48.58C42.15 48.58 40.28 48.58 38.3 48.43C32.87 48.28 26.79 48.72 25.06 53.12C22.49 48.57 16.66 48.13 11.53 48.28C9.69999 48.43 7.82999 48.43 6.39999 48.43L0.459991 61.16C3.57999 62 7.56999 62.81 11.57 61.53C16.41 59.81 21.58 58.85 25.14 63.99C25.4 63.7 25.73 63.29 26.09 62.96C30.09 58.96 34.19 59.7 38.34 61.24C42.19 62.67 45.75 62.01 49.16 61.17L43.69 48.58Z" fill="#14AE5C"/>
<path d="M24.99 65.6H24.95C24.8 65.6 24.69 65.53 24.62 65.42C21.47 60.87 17.18 61.24 11.71 63.18C7.60001 64.5 3.46001 63.69 0.340006 62.81C0.0800062 62.74 -0.0599938 62.48 0.0100062 62.22C0.0800062 61.96 0.340006 61.82 0.600006 61.89C3.79001 62.77 7.60001 63.5 11.42 62.26C16.37 60.5 21.43 59.58 25.1 64.42C25.32 64.24 25.54 64.02 25.72 63.83C29.97 59.58 34.37 60.42 38.48 62C42.26 63.39 45.74 62.73 49 61.89C49.26 61.82 49.51 61.96 49.59 62.22C49.66 62.48 49.52 62.73 49.26 62.77C45.85 63.61 42.22 64.35 38.19 62.84C33.79 61.15 30.09 60.79 26.46 64.45C26.28 64.67 25.98 64.93 25.73 65.15C25.62 65.26 25.51 65.33 25.4 65.44C25.25 65.52 25.14 65.6 24.99 65.6Z" fill="#14AE5C"/>
</g>
<defs>
<clipPath id="clip0_1_2299">
<rect width="49.61" height="65.6" fill="white"/>
</clipPath>
</defs>
</svg>
