<svg width="27" height="16" viewBox="0 0 27 16" fill="none" xmlns="http://www.w3.org/2000/svg">
<path fill-rule="evenodd" clip-rule="evenodd" d="M26.3614 0.367301L16.0055 9.80963C14.6397 11.0549 12.429 11.0549 11.0633 9.80963L0.668122 0.31355C0.953057 0.116461 1.31659 0 1.70961 0H25.2511C25.6539 0 26.0469 0.12542 26.3614 0.367301ZM0 14.71V1.90817C0 1.63046 0.0786026 1.37066 0.216157 1.1467L7.97817 8.27771L0.393013 15.4446C0.196507 15.2296 0.058952 14.9787 0 14.71ZM26.9509 1.22732C26.9803 1.34378 27 1.4692 27 1.59462V14.3964C27 14.8085 26.833 15.1848 26.548 15.4625L19.1004 8.43001L26.9509 1.22732ZM1.30677 15.9462L8.71507 8.95857L10.5033 10.6069C10.9159 10.9832 11.3974 11.2788 11.9279 11.4849C12.4585 11.6909 13.0382 11.7895 13.6179 11.7895C14.1976 11.7895 14.7675 11.682 15.3079 11.4849C15.8483 11.2878 16.3297 10.9832 16.7325 10.6069L18.3537 9.11982L25.6048 15.9642C25.4869 15.9821 25.369 16 25.2413 16H1.70961C1.57205 15.991 1.44432 15.9731 1.30677 15.9462Z" fill="white"/>
</svg>
