<svg width="23" height="18" viewBox="0 0 23 18" fill="none" xmlns="http://www.w3.org/2000/svg">
<g clip-path="url(#clip0_7_800)">
<path d="M0 5.24718C0 5.24718 0.259009 4.09247 0.794294 4.09247C1.32958 4.09247 1.48498 5.24718 1.48498 5.24718V15.1132C1.48498 15.1132 1.43318 15.6906 1.74399 15.6906C2.07207 15.6906 2.22748 15.0113 2.22748 15.0113V5.19624C2.22748 5.19624 2.17568 4.19435 1.7958 4.19435H3.50526V15.8434C3.50526 15.8434 3.45345 18 1.8994 18C0.345345 18 0.0863363 15.8944 0.0863363 15.8944L0 5.24718Z" fill="white"/>
<path d="M23.0002 15.6226V0H4.48965V15.0113C4.48965 17.8472 3.26367 18 3.26367 18H21.3943C23.1556 17.983 23.0002 15.6226 23.0002 15.6226ZM6.61352 2.10566H12.9333V7.99811H6.61352V2.10566ZM20.6691 16.2679H6.87253C6.68259 16.2679 6.54445 16.1151 6.54445 15.9453C6.54445 15.7755 6.69986 15.6226 6.87253 15.6226H20.6691C20.859 15.6226 20.9972 15.7755 20.9972 15.9453C20.9972 16.1151 20.859 16.2679 20.6691 16.2679ZM20.6691 13.6358H6.87253C6.68259 13.6358 6.54445 13.483 6.54445 13.3132C6.54445 13.1434 6.69986 12.9906 6.87253 12.9906H20.6691C20.859 12.9906 20.9972 13.1434 20.9972 13.3132C20.9972 13.483 20.859 13.6358 20.6691 13.6358ZM20.6691 10.817H6.87253C6.68259 10.817 6.54445 10.6642 6.54445 10.4943C6.54445 10.3075 6.69986 10.1717 6.87253 10.1717H20.6691C20.859 10.1717 20.9972 10.3245 20.9972 10.4943C20.9972 10.6642 20.859 10.817 20.6691 10.817ZM20.6691 7.99811H14.8673C14.6773 7.99811 14.5392 7.84528 14.5392 7.67547C14.5392 7.50566 14.6773 7.33585 14.8673 7.33585H20.6691C20.859 7.33585 20.9972 7.48868 20.9972 7.65849C20.9972 7.8283 20.859 7.99811 20.6691 7.99811ZM20.6691 5.38302H14.8673C14.6773 5.38302 14.5392 5.23019 14.5392 5.06038C14.5392 4.89057 14.6773 4.72075 14.8673 4.72075H20.6691C20.859 4.72075 20.9972 4.87358 20.9972 5.0434C20.9972 5.21321 20.859 5.38302 20.6691 5.38302ZM20.6691 2.68302H14.8673C14.6773 2.68302 14.5392 2.53019 14.5392 2.36038C14.5392 2.19057 14.6773 2.03774 14.8673 2.03774H20.6691C20.859 2.03774 20.9972 2.19057 20.9972 2.36038C20.9972 2.53019 20.859 2.68302 20.6691 2.68302Z" fill="white"/>
<path d="M12.0697 2.95471H7.47656V7.14905H12.0697V2.95471Z" fill="white"/>
</g>
<defs>
<clipPath id="clip0_7_800">
<rect width="23" height="18" fill="white"/>
</clipPath>
</defs>
</svg>
