<svg width="20" height="19" viewBox="0 0 20 19" fill="none" xmlns="http://www.w3.org/2000/svg">
<path d="M18.0379 12.9524L15.2075 12.6431C14.5313 12.5717 13.8633 12.7938 13.3791 13.2459L11.3336 15.1892C8.18595 13.6663 5.59772 11.2233 3.99469 8.21722L6.05692 6.25809C6.53282 5.80599 6.7666 5.17145 6.69146 4.52106L6.37419 1.87188C6.2406 0.801099 5.29716 0 4.16168 0H2.23303C0.972317 0 -0.071322 0.99146 0.00382 2.18914C0.596607 11.2233 8.1943 18.4332 17.6956 18.9964C18.9563 19.0678 19.9999 18.0763 19.9999 16.8786V15.0464C20.0083 13.9835 19.165 13.0793 18.0379 12.9524Z" fill="white"/>
</svg>
